<svg xmlns="http://www.w3.org/2000/svg" xmlns:xlink="http://www.w3.org/1999/xlink" xmlns:lucid="lucid" width="1088.5" height="582"><g transform="translate(127.00000000000001 -19)" lucid:page-tab-id="0_0"><path d="M80 47a6 6 0 0 1 6-6h828a6 6 0 0 1 6 6v308a6 6 0 0 1-6 6H86a6 6 0 0 1-6-6z" stroke="#3a414a" stroke-width="2" fill-opacity="0"/><path d="M672 107a6 6 0 0 1 6-6h228a6 6 0 0 1 6 6v240.33a6 6 0 0 1-6 6H678a6 6 0 0 1-6-6zM89.84 107a6 6 0 0 1 6-6h236.32a6 6 0 0 1 6 6v240.33a6 6 0 0 1-6 6H95.84a6 6 0 0 1-6-6zM380 107a6 6 0 0 1 6-6h240a6 6 0 0 1 6 6v240.33a6 6 0 0 1-6 6H386a6 6 0 0 1-6-6z" stroke="#3a414a" stroke-width="2" fill-opacity="0"/><path d="M108 167a6 6 0 0 1 6-6h200a6 6 0 0 1 6 6v68a6 6 0 0 1-6 6H114a6 6 0 0 1-6-6z" stroke="#3a414a" stroke-width="2" fill="#f2f3f5"/><use xlink:href="#a" transform="matrix(1,0,0,1,120,173) translate(2.9973958333333144 24.22222222222222)"/><use xlink:href="#b" transform="matrix(1,0,0,1,120,173) translate(47.763020833333314 24.22222222222222)"/><use xlink:href="#c" transform="matrix(1,0,0,1,120,173) translate(104.36024305555554 24.22222222222222)"/><use xlink:href="#d" transform="matrix(1,0,0,1,120,173) translate(35.57118055555555 45.732638888888886)"/><path d="M108 267a6 6 0 0 1 6-6h200a6 6 0 0 1 6 6v68a6 6 0 0 1-6 6H114a6 6 0 0 1-6-6z" stroke="#3a414a" stroke-width="2" fill="#f2f3f5"/><use xlink:href="#e" transform="matrix(1,0,0,1,120,273) translate(17.359374999999986 24.22222222222222)"/><use xlink:href="#f" transform="matrix(1,0,0,1,120,273) translate(75.15451388888889 24.22222222222222)"/><use xlink:href="#g" transform="matrix(1,0,0,1,120,273) translate(63.4140625 45.732638888888886)"/><path d="M400 167a6 6 0 0 1 6-6h200a6 6 0 0 1 6 6v68a6 6 0 0 1-6 6H406a6 6 0 0 1-6-6z" stroke="#3a414a" stroke-width="2" fill="#f2f3f5"/><use xlink:href="#h" transform="matrix(1,0,0,1,412,173) translate(14.069444444444429 24.22222222222222)"/><use xlink:href="#i" transform="matrix(1,0,0,1,412,173) translate(103.72222222222221 24.22222222222222)"/><use xlink:href="#j" transform="matrix(1,0,0,1,412,173) translate(64.8984375 45.732638888888886)"/><path d="M400 267a6 6 0 0 1 6-6h200a6 6 0 0 1 6 6v68a6 6 0 0 1-6 6H406a6 6 0 0 1-6-6z" stroke="#3a414a" stroke-width="2" fill="#f2f3f5"/><use xlink:href="#k" transform="matrix(1,0,0,1,412,273) translate(27.16840277777777 34.72222222222222)"/><use xlink:href="#l" transform="matrix(1,0,0,1,412,273) translate(80.18923611111111 34.72222222222222)"/><path d="M686 167a6 6 0 0 1 6-6h200a6 6 0 0 1 6 6v68a6 6 0 0 1-6 6H692a6 6 0 0 1-6-6z" stroke="#3a414a" stroke-width="2" fill="#f2f3f5"/><use xlink:href="#m" transform="matrix(1,0,0,1,698,173) translate(31.04427083333333 24.22222222222222)"/><use xlink:href="#n" transform="matrix(1,0,0,1,698,173) translate(99.73350694444444 24.22222222222222)"/><use xlink:href="#o" transform="matrix(1,0,0,1,698,173) translate(121.03559027777779 24.22222222222222)"/><use xlink:href="#p" transform="matrix(1,0,0,1,698,173) translate(46.27864583333332 45.732638888888886)"/><path d="M686 267a6 6 0 0 1 6-6h200a6 6 0 0 1 6 6v68a6 6 0 0 1-6 6H692a6 6 0 0 1-6-6z" stroke="#3a414a" stroke-width="2" fill="#f2f3f5"/><use xlink:href="#q" transform="matrix(1,0,0,1,698,273) translate(18.049479166666657 17.22222222222222)"/><use xlink:href="#r" transform="matrix(1,0,0,1,698,273) translate(91.25260416666666 17.22222222222222)"/><use xlink:href="#s" transform="matrix(1,0,0,1,698,273) translate(45.52777777777778 38.732638888888886)"/><use xlink:href="#t" transform="matrix(1,0,0,1,698,273) translate(136.06597222222223 38.732638888888886)"/><use xlink:href="#u" transform="matrix(1,0,0,1,698,273) translate(41.595486111111114 60.24305555555555)"/><path d="M94 107a6 6 0 0 1 6-6h228a6 6 0 0 1 6 6v48a6 6 0 0 1-6 6H100a6 6 0 0 1-6-6z" fill="none"/><use xlink:href="#v" transform="matrix(1,0,0,1,94,101) translate(42.560763888888886 36.467013888888886)"/><use xlink:href="#w" transform="matrix(1,0,0,1,94,101) translate(100.13020833333334 36.467013888888886)"/><path d="M386 107a6 6 0 0 1 6-6h228a6 6 0 0 1 6 6v48a6 6 0 0 1-6 6H392a6 6 0 0 1-6-6z" fill="none"/><use xlink:href="#x" transform="matrix(1,0,0,1,386,101) translate(50.34722222222223 36.467013888888886)"/><use xlink:href="#w" transform="matrix(1,0,0,1,386,101) translate(92.34375 36.467013888888886)"/><path d="M672 107a6 6 0 0 1 6-6h228a6 6 0 0 1 6 6v48a6 6 0 0 1-6 6H678a6 6 0 0 1-6-6z" fill="none"/><use xlink:href="#y" transform="matrix(1,0,0,1,672,101) translate(43.60677083333334 36.467013888888886)"/><use xlink:href="#w" transform="matrix(1,0,0,1,672,101) translate(99.0842013888889 36.467013888888886)"/><path d="M414 47a6 6 0 0 1 6-6h228a6 6 0 0 1 6 6v48a6 6 0 0 1-6 6H420a6 6 0 0 1-6-6z" fill="none"/><use xlink:href="#z" transform="matrix(1,0,0,1,414,41) translate(42.66710069444444 38.083767361111114)"/><use xlink:href="#A" transform="matrix(1,0,0,1,414,41) translate(70.75954861111111 38.083767361111114)"/><path d="M-23.75 27.25c0 4-3.25 7.25-7.25 7.25s-7.25-3.25-7.25-7.25S-35 20-31 20s7.25 3.25 7.25 7.25z" stroke="#3a414a" stroke-width="2" fill="#fff"/><path d="M-31 34.5v14.3a20.33 20.33 0 0 0 3.26 11.04L-16 78m-15-23.2L-46 78m0-36.25h30" stroke="#3a414a" stroke-width="2" fill="none"/><path d="M-46 26a6 6 0 0 1 6-6h18a6 6 0 0 1 6 6v68a6 6 0 0 1-6 6h-18a6 6 0 0 1-6-6z" fill="none"/><use xlink:href="#B" transform="matrix(1,0,0,1,-126.00000000000001,78) translate(70.20616319444444 21.52777777777778)"/><path d="M-46 146a6 6 0 0 1 6-6H68a6 6 0 0 1 6 6v48a6 6 0 0 1-6 6H-40a6 6 0 0 1-6-6z" fill="none"/><use xlink:href="#C" transform="matrix(1,0,0,1,-46,140) translate(37.012261284722214 16.837022569444446)"/><use xlink:href="#D" transform="matrix(1,0,0,1,-46,140) translate(18.615993923611107 35.658637152777786)"/><use xlink:href="#E" transform="matrix(1,0,0,1,-46,140) translate(38.59212239583333 54.480251736111114)"/><path d="M-31 100.5v122.12" stroke="#3a414a" fill="none"/><path d="M-30.52 100.5h-.96V97h.96z" stroke="#3a414a" stroke-width=".05" fill="#3a414a"/><path d="M-31 237.38l-4.63-14.26h9.27z" stroke="#3a414a" fill="#3a414a"/><path d="M-126 246a6 6 0 0 1 6-6H58a6 6 0 0 1 6 6v28a6 6 0 0 1-6 6h-178a6 6 0 0 1-6-6z" stroke="#3a414a" stroke-width="2" fill="#fff0f0"/><use xlink:href="#F" transform="matrix(1,0,0,1,-114.00000000000001,252) translate(2.244791666666657 17.22222222222222)"/><use xlink:href="#G" transform="matrix(1,0,0,1,-114.00000000000001,252) translate(90.56076388888889 17.22222222222222)"/><path d="M439 448a6 6 0 0 1 6-6h128a6 6 0 0 1 6 6v28a6 6 0 0 1-6 6H445a6 6 0 0 1-6-6z" stroke="#3a414a" stroke-width="2" fill="#fff0f0"/><use xlink:href="#H" transform="matrix(1,0,0,1,451,454.0000499999999) translate(5.1137152777777715 17.22222222222222)"/><use xlink:href="#I" transform="matrix(1,0,0,1,451,454.0000499999999) translate(55.443576388888886 17.22222222222222)"/><path d="M-31 281.5V456a6 6 0 0 0 6 6h446.62" stroke="#3a414a" fill="none"/><path d="M-30.52 281.5h-.96v-.5h.96z" stroke="#3a414a" stroke-width=".05" fill="#3a414a"/><path d="M436.38 462l-14.26 4.63v-9.26z" stroke="#3a414a" fill="#3a414a"/><path d="M-16 448a6 6 0 0 1 6-6h144a6 6 0 0 1 6 6v48a6 6 0 0 1-6 6H-10a6 6 0 0 1-6-6z" fill="none"/><use xlink:href="#J" transform="matrix(1,0,0,1,-16.00000000000003,442.0000499999999) translate(4.9769965277777715 35.65863715277778)"/><use xlink:href="#K" transform="matrix(1,0,0,1,-16.00000000000003,442.0000499999999) translate(78.03038194444444 35.65863715277778)"/><use xlink:href="#L" transform="matrix(1,0,0,1,-16.00000000000003,442.0000499999999) translate(117.16232638888889 35.65863715277778)"/><path d="M214 354.83V456a6 6 0 0 0 6 6h201.62" stroke="#3a414a" fill="none"/><path d="M214.47 354.85h-.94v-.52h.94z" stroke="#3a414a" stroke-width=".05" fill="#3a414a"/><path d="M436.38 462l-14.26 4.63v-9.26z" stroke="#3a414a" fill="#3a414a"/><path d="M60 386a6 6 0 0 1 6-6h144a6 6 0 0 1 6 6v48a6 6 0 0 1-6 6H66a6 6 0 0 1-6-6z" fill="none"/><g><use xlink:href="#M" transform="matrix(1,0,0,1,60,380) translate(5.717556423611114 26.24782986111111)"/><use xlink:href="#N" transform="matrix(1,0,0,1,60,380) translate(66.73209635416667 26.24782986111111)"/><use xlink:href="#O" transform="matrix(1,0,0,1,60,380) translate(55.32747395833333 45.06944444444444)"/></g><path d="M506 354.83v69.8" stroke="#3a414a" fill="none"/><path d="M506.48 354.85h-.96v-.52h.96z" stroke="#3a414a" stroke-width=".05" fill="#3a414a"/><path d="M506 439.38l-4.63-14.26h9.26z" stroke="#3a414a" fill="#3a414a"/><path d="M792 354.83V456a6 6 0 0 1-6 6H596.38" stroke="#3a414a" fill="none"/><path d="M792.48 354.85h-.96v-.52h.96z" stroke="#3a414a" stroke-width=".05" fill="#3a414a"/><path d="M581.62 462l14.26-4.63v9.26z" stroke="#3a414a" fill="#3a414a"/><path d="M338.16 377.5a6 6 0 0 1 6-6h144a6 6 0 0 1 6 6v48a6 6 0 0 1-6 6h-144a6 6 0 0 1-6-6z" fill="none"/><g><use xlink:href="#M" transform="matrix(1,0,0,1,338.1609020060896,371.50002499999994) translate(5.717556423611114 26.24782986111111)"/><use xlink:href="#N" transform="matrix(1,0,0,1,338.1609020060896,371.50002499999994) translate(66.73209635416667 26.24782986111111)"/><use xlink:href="#O" transform="matrix(1,0,0,1,338.1609020060896,371.50002499999994) translate(55.32747395833333 45.06944444444444)"/></g><path d="M580.5 462H955a6 6 0 0 0 6-6V207a6 6 0 0 0-6-6h-17.62" stroke="#3a414a" fill="none"/><path d="M580.5 462.48h-.5v-.96h.5z" stroke="#3a414a" stroke-width=".05" fill="#3a414a"/><path d="M922.62 201l14.26-4.63v9.26z" stroke="#3a414a" fill="#3a414a"/><path d="M626 406a6 6 0 0 1 6-6h144a6 6 0 0 1 6 6v48a6 6 0 0 1-6 6H632a6 6 0 0 1-6-6z" fill="none"/><g><use xlink:href="#M" transform="matrix(1,0,0,1,626,400) translate(5.717556423611114 26.24782986111111)"/><use xlink:href="#N" transform="matrix(1,0,0,1,626,400) translate(66.73209635416667 26.24782986111111)"/><use xlink:href="#O" transform="matrix(1,0,0,1,626,400) translate(55.32747395833333 45.06944444444444)"/></g><path d="M801 448a6 6 0 0 1 6-6h144a6 6 0 0 1 6 6v48a6 6 0 0 1-6 6H807a6 6 0 0 1-6-6z" fill="none"/><g><use xlink:href="#P" transform="matrix(1,0,0,1,801,442.0000499999999) translate(30.592773437499986 35.65863715277778)"/><use xlink:href="#Q" transform="matrix(1,0,0,1,801,442.0000499999999) translate(90.65028211805556 35.65863715277778)"/></g><path d="M458 566a6 6 0 0 1 6-6h96a6 6 0 0 1 6 6v28a6 6 0 0 1-6 6h-96a6 6 0 0 1-6-6z" stroke="#3a414a" stroke-width="2" fill="#fff0f0"/><g><use xlink:href="#R" transform="matrix(1,0,0,1,470,572) translate(-3.8463541666666714 17.22222222222222)"/></g><path d="M509 483.5v59.12" stroke="#3a414a" fill="none"/><path d="M509.48 483.5h-.96v-.5h.96z" stroke="#3a414a" stroke-width=".05" fill="#3a414a"/><path d="M509 557.38l-4.63-14.26h9.26z" stroke="#3a414a" fill="#3a414a"/><path d="M352 497a6 6 0 0 1 6-6h144a6 6 0 0 1 6 6v48a6 6 0 0 1-6 6H358a6 6 0 0 1-6-6z" fill="none"/><g><use xlink:href="#S" transform="matrix(1,0,0,1,352,491.00002499999994) translate(6.784722222222214 26.24782986111111)"/><use xlink:href="#T" transform="matrix(1,0,0,1,352,491.00002499999994) translate(57.13519965277778 26.24782986111111)"/><use xlink:href="#U" transform="matrix(1,0,0,1,352,491.00002499999994) translate(88.96028645833333 26.24782986111111)"/><use xlink:href="#V" transform="matrix(1,0,0,1,352,491.00002499999994) translate(29.93576388888888 45.06944444444444)"/><use xlink:href="#Q" transform="matrix(1,0,0,1,352,491.00002499999994) translate(91.30729166666667 45.06944444444444)"/></g><defs><path d="M180 0v-1490h901v168H370v510h643v168H370V0H180" id="W"/><path d="M471 26C259 26 90-98 90-318c0-256 228-303 435-329 202-27 287-16 287-108 0-139-79-219-234-219-161 0-248 86-283 164l-173-57c86-203 278-265 451-265 150 0 419 46 419 395V0H815v-152h-12C765-73 660 26 471 26zm31-159c199 0 310-134 310-271v-155c-30 35-226 55-295 64-131 17-246 59-246 186 0 116 97 176 231 176" id="X"/><path d="M158 0v-1490h180v865h22l478-493h223L593-638 1096 0H865L456-523 338-412V0H158" id="Y"/><path d="M628 24c-324 0-524-230-524-574 0-343 198-582 503-582 237 0 487 146 487 559v75H286c9 234 145 362 343 362 132 0 231-58 273-172l174 48C1024-91 857 24 628 24zM287-650h624c-17-190-120-322-304-322-192 0-309 151-320 322" id="Z"/><g id="a"><use transform="matrix(0.008680555555555556,0,0,0.008680555555555556,0,0)" xlink:href="#W"/><use transform="matrix(0.008680555555555556,0,0,0.008680555555555556,10.06076388888889,0)" xlink:href="#X"/><use transform="matrix(0.008680555555555556,0,0,0.008680555555555556,20.04340277777778,0)" xlink:href="#Y"/><use transform="matrix(0.008680555555555556,0,0,0.008680555555555556,29.401041666666664,0)" xlink:href="#Z"/></g><path d="M370-1490V0H180v-1490h190" id="aa"/><path d="M158 0v-1118h175l1 205c55-151 181-225 313-225 147 0 245 90 285 228 53-141 190-228 352-228 194 0 352 125 352 384V0h-181v-749c0-161-105-225-225-225-151 0-243 103-243 244V0H807v-767c0-124-93-207-219-207-131 0-250 92-250 270V0H158" id="ab"/><path d="M611 442c-248 0-391-105-460-228l146-94c47 65 117 165 314 165 178 0 307-82 307-266v-224h-17C863-141 792-18 576-18c-268 0-472-195-472-546 0-346 197-568 476-568 216 0 288 133 326 193h17v-179h175V29c0 289-215 413-487 413zm-5-620c203 0 314-146 314-390 0-237-108-403-314-403-213 0-319 180-319 403 0 230 109 390 319 390" id="ac"/><g id="b"><use transform="matrix(0.008680555555555556,0,0,0.008680555555555556,0,0)" xlink:href="#aa"/><use transform="matrix(0.008680555555555556,0,0,0.008680555555555556,4.774305555555555,0)" xlink:href="#ab"/><use transform="matrix(0.008680555555555556,0,0,0.008680555555555556,20.34722222222222,0)" xlink:href="#X"/><use transform="matrix(0.008680555555555556,0,0,0.008680555555555556,30.32986111111111,0)" xlink:href="#ac"/><use transform="matrix(0.008680555555555556,0,0,0.008680555555555556,41.232638888888886,0)" xlink:href="#Z"/></g><path d="M645 0H180v-1490h484c435 0 692 280 692 742 0 466-257 748-711 748zM370-168h263c363 0 539-218 539-580 0-358-176-574-521-574H370v1154" id="ad"/><path d="M598-1118v154H368v674c0 100 37 144 132 144 23 0 62-6 92-12L629-6c-37 13-88 20-134 20-193 0-307-107-307-290v-688H20v-154h168v-266h180v266h230" id="ae"/><path d="M613 24c-304 0-509-231-509-576 0-350 205-580 509-580 216 0 392 114 453 309l-173 49c-33-115-133-197-280-197-223 0-326 196-326 419 0 220 103 415 326 415 150 0 252-85 285-206l172 49C1010-95 832 24 613 24" id="af"/><path d="M158 0v-1118h180V0H158zm91-1301c-68 0-125-53-125-119s57-119 125-119c69 0 126 53 126 119s-57 119-126 119" id="ag"/><path d="M613 24c-304 0-509-231-509-576 0-350 205-580 509-580 305 0 511 230 511 580 0 345-206 576-511 576zm0-161c226 0 329-195 329-415 0-222-103-419-329-419-223 0-326 196-326 419 0 220 103 415 326 415" id="ah"/><path d="M338-670V0H158v-1118h173l1 207c72-158 192-221 342-221 226 0 378 139 378 422V0H872v-695c0-172-96-275-252-275-161 0-282 109-282 300" id="ai"/><g id="c"><use transform="matrix(0.008680555555555556,0,0,0.008680555555555556,0,0)" xlink:href="#ad"/><use transform="matrix(0.008680555555555556,0,0,0.008680555555555556,12.829861111111112,0)" xlink:href="#Z"/><use transform="matrix(0.008680555555555556,0,0,0.008680555555555556,23.194444444444446,0)" xlink:href="#ae"/><use transform="matrix(0.008680555555555556,0,0,0.008680555555555556,28.836805555555557,0)" xlink:href="#Z"/><use transform="matrix(0.008680555555555556,0,0,0.008680555555555556,39.20138888888889,0)" xlink:href="#af"/><use transform="matrix(0.008680555555555556,0,0,0.008680555555555556,49.35763888888889,0)" xlink:href="#ae"/><use transform="matrix(0.008680555555555556,0,0,0.008680555555555556,55.173611111111114,0)" xlink:href="#ag"/><use transform="matrix(0.008680555555555556,0,0,0.008680555555555556,59.47916666666667,0)" xlink:href="#ah"/><use transform="matrix(0.008680555555555556,0,0,0.008680555555555556,70.1388888888889,0)" xlink:href="#ai"/></g><path d="M218-607c0-325 108-727 258-974h175c-155 315-250 682-250 974 0 265 78 531 250 886H476C306-10 218-315 218-607" id="aj"/><path d="M57 0l534-763-501-727h220c122 187 296 416 391 605 94-191 272-419 396-605h215L811-770 1340 0h-219C986-204 811-426 699-640 588-430 407-202 273 0H57" id="ak"/><path d="M158 418v-1536h174v179h20c37-59 106-193 324-193 279 0 474 222 474 576 0 356-194 580-473 580-213 0-288-135-325-197h-14v591H158zm492-555c209 0 317-186 317-421 0-232-105-413-317-413-206 0-314 166-314 413 0 249 111 421 314 421" id="al"/><path d="M180 0v-1490h224l606 953c40 63 108 177 176 312-27-437-7-821-13-1265h190V0h-226C860-448 622-778 356-1262c27 476 11 792 15 1262H180" id="am"/><path d="M96 279C273-86 346-350 346-607c0-292-95-659-250-974h175c150 246 258 650 258 974 0 297-91 602-258 886H96" id="an"/><g id="d"><use transform="matrix(0.008680555555555556,0,0,0.008680555555555556,0,0)" xlink:href="#aj"/><use transform="matrix(0.008680555555555556,0,0,0.008680555555555556,6.484375,0)" xlink:href="#ak"/><use transform="matrix(0.008680555555555556,0,0,0.008680555555555556,18.10763888888889,0)" xlink:href="#af"/><use transform="matrix(0.008680555555555556,0,0,0.008680555555555556,28.26388888888889,0)" xlink:href="#Z"/><use transform="matrix(0.008680555555555556,0,0,0.008680555555555556,38.62847222222222,0)" xlink:href="#al"/><use transform="matrix(0.008680555555555556,0,0,0.008680555555555556,49.513888888888886,0)" xlink:href="#ae"/><use transform="matrix(0.008680555555555556,0,0,0.008680555555555556,55.32986111111111,0)" xlink:href="#ag"/><use transform="matrix(0.008680555555555556,0,0,0.008680555555555556,59.635416666666664,0)" xlink:href="#ah"/><use transform="matrix(0.008680555555555556,0,0,0.008680555555555556,70.29513888888889,0)" xlink:href="#ai"/><use transform="matrix(0.008680555555555556,0,0,0.008680555555555556,80.79861111111111,0)" xlink:href="#am"/><use transform="matrix(0.008680555555555556,0,0,0.008680555555555556,94.19270833333334,0)" xlink:href="#Z"/><use transform="matrix(0.008680555555555556,0,0,0.008680555555555556,104.55729166666667,0)" xlink:href="#ae"/><use transform="matrix(0.008680555555555556,0,0,0.008680555555555556,110.3732638888889,0)" xlink:href="#an"/></g><path d="M657 26c-323 0-524-166-541-416h195c15 169 171 246 346 246 202 0 356-106 356-265 5-203-294-238-475-293-239-73-380-191-380-389 0-252 224-419 512-419 294 0 499 171 508 396H992c-17-145-151-228-328-228-193 0-321 102-321 242 0 156 175 211 284 241l149 41c160 44 422 134 422 412 0 244-197 432-541 432" id="ao"/><g id="e"><use transform="matrix(0.008680555555555556,0,0,0.008680555555555556,0,0)" xlink:href="#ao"/><use transform="matrix(0.008680555555555556,0,0,0.008680555555555556,11.40625,0)" xlink:href="#af"/><use transform="matrix(0.008680555555555556,0,0,0.008680555555555556,21.5625,0)" xlink:href="#Z"/><use transform="matrix(0.008680555555555556,0,0,0.008680555555555556,31.927083333333336,0)" xlink:href="#ai"/><use transform="matrix(0.008680555555555556,0,0,0.008680555555555556,42.43055555555556,0)" xlink:href="#Z"/></g><path d="M600 0L52-1490h200c166 485 304 806 458 1336 156-533 285-846 449-1336h202L819 0H600" id="ap"/><path d="M158 0v-1118h174v172h12c41-113 157-188 290-188 26 0 70 2 91 3v181c-11-2-60-10-108-10-161 0-279 109-279 260V0H158" id="aq"/><path d="M678-1118v154H420V0H240v-964H20v-154h220v-149c0-194 155-293 318-293 85 0 141 18 168 30l-50 154c-19-6-47-17-97-17-111 0-159 58-159 166v109h258" id="ar"/><g id="f"><use transform="matrix(0.008680555555555556,0,0,0.008680555555555556,0,0)" xlink:href="#ap"/><use transform="matrix(0.008680555555555556,0,0,0.008680555555555556,11.362847222222221,0)" xlink:href="#Z"/><use transform="matrix(0.008680555555555556,0,0,0.008680555555555556,21.727430555555557,0)" xlink:href="#aq"/><use transform="matrix(0.008680555555555556,0,0,0.008680555555555556,28.69791666666667,0)" xlink:href="#ag"/><use transform="matrix(0.008680555555555556,0,0,0.008680555555555556,33.00347222222223,0)" xlink:href="#ar"/><use transform="matrix(0.008680555555555556,0,0,0.008680555555555556,39.58333333333334,0)" xlink:href="#ag"/><use transform="matrix(0.008680555555555556,0,0,0.008680555555555556,43.8888888888889,0)" xlink:href="#af"/><use transform="matrix(0.008680555555555556,0,0,0.008680555555555556,54.21875000000001,0)" xlink:href="#X"/><use transform="matrix(0.008680555555555556,0,0,0.008680555555555556,64.2013888888889,0)" xlink:href="#ae"/><use transform="matrix(0.008680555555555556,0,0,0.008680555555555556,70.01736111111113,0)" xlink:href="#ag"/><use transform="matrix(0.008680555555555556,0,0,0.008680555555555556,74.32291666666669,0)" xlink:href="#ah"/><use transform="matrix(0.008680555555555556,0,0,0.008680555555555556,84.98263888888891,0)" xlink:href="#ai"/></g><path d="M600 0v-610L52-1490h220l295 481c50 82 90 150 130 243 40-96 80-164 128-243l294-481h219L790-610V0H600" id="as"/><path d="M784 20c-382 0-662-292-662-764 0-473 280-766 662-766s660 293 660 766c0 472-278 764-660 764zm0-176c266 0 475-207 475-588 0-383-209-590-475-590-268 0-477 208-477 590 0 380 209 588 477 588" id="at"/><path d="M180 0v-1490h190v1322h690V0H180" id="au"/><g id="g"><use transform="matrix(0.008680555555555556,0,0,0.008680555555555556,0,0)" xlink:href="#aj"/><use transform="matrix(0.008680555555555556,0,0,0.008680555555555556,6.484375,0)" xlink:href="#as"/><use transform="matrix(0.008680555555555556,0,0,0.008680555555555556,17.95138888888889,0)" xlink:href="#at"/><use transform="matrix(0.008680555555555556,0,0,0.008680555555555556,31.54513888888889,0)" xlink:href="#au"/><use transform="matrix(0.008680555555555556,0,0,0.008680555555555556,41.09375,0)" xlink:href="#at"/><use transform="matrix(0.008680555555555556,0,0,0.008680555555555556,54.6875,0)" xlink:href="#an"/></g><g id="h"><use transform="matrix(0.008680555555555556,0,0,0.008680555555555556,0,0)" xlink:href="#ao"/><use transform="matrix(0.008680555555555556,0,0,0.008680555555555556,11.40625,0)" xlink:href="#Z"/><use transform="matrix(0.008680555555555556,0,0,0.008680555555555556,21.770833333333336,0)" xlink:href="#ai"/><use transform="matrix(0.008680555555555556,0,0,0.008680555555555556,32.27430555555556,0)" xlink:href="#ae"/><use transform="matrix(0.008680555555555556,0,0,0.008680555555555556,38.09027777777778,0)" xlink:href="#ag"/><use transform="matrix(0.008680555555555556,0,0,0.008680555555555556,42.395833333333336,0)" xlink:href="#ab"/><use transform="matrix(0.008680555555555556,0,0,0.008680555555555556,57.96875,0)" xlink:href="#Z"/><use transform="matrix(0.008680555555555556,0,0,0.008680555555555556,68.33333333333333,0)" xlink:href="#ai"/><use transform="matrix(0.008680555555555556,0,0,0.008680555555555556,78.83680555555556,0)" xlink:href="#ae"/></g><path d="M52 0l541-1490h220L1361 0h-200l-149-416H398L254 0H52zm404-582h497c-103-290-145-390-251-756-108 377-145 460-246 756" id="av"/><path d="M338-1490V0H158v-1490h180" id="aw"/><path d="M140 405l46-156c120 36 205 19 263-150l32-93L54-1118h197c107 313 237 620 324 950 87-331 219-637 326-950h196L606 167c-68 178-176 259-334 259-64 0-113-12-132-21" id="ax"/><path d="M538 24C308 24 148-78 108-271l171-41c32 123 123 178 257 178 156 0 256-77 256-169 0-77-54-128-164-154l-186-44c-203-48-300-148-300-305 0-192 176-326 414-326 230 0 351 112 402 269l-163 42c-31-80-94-158-238-158-133 0-233 69-233 162 0 83 57 129 188 160l169 40c203 48 298 149 298 302 0 196-179 339-441 339" id="ay"/><g id="i"><use transform="matrix(0.008680555555555556,0,0,0.008680555555555556,0,0)" xlink:href="#av"/><use transform="matrix(0.008680555555555556,0,0,0.008680555555555556,12.265625,0)" xlink:href="#ai"/><use transform="matrix(0.008680555555555556,0,0,0.008680555555555556,22.769097222222225,0)" xlink:href="#X"/><use transform="matrix(0.008680555555555556,0,0,0.008680555555555556,32.751736111111114,0)" xlink:href="#aw"/><use transform="matrix(0.008680555555555556,0,0,0.008680555555555556,37.14409722222223,0)" xlink:href="#ax"/><use transform="matrix(0.008680555555555556,0,0,0.008680555555555556,47.13541666666667,0)" xlink:href="#ay"/><use transform="matrix(0.008680555555555556,0,0,0.008680555555555556,56.51909722222222,0)" xlink:href="#ag"/><use transform="matrix(0.008680555555555556,0,0,0.008680555555555556,60.824652777777786,0)" xlink:href="#ay"/></g><path d="M180 0v-1490h528c311 0 458 177 458 395 0 191-114 278-244 313v14c139 9 302 137 302 371 0 225-148 397-499 397H180zm190-168h350c232 0 321-102 321-231 0-149-120-277-311-277H370v508zm0-668h328c160 0 286-101 286-255 0-129-87-231-280-231H370v486" id="az"/><path d="M180 0v-1490h908v168H370v486h669v168H370v500h727V0H180" id="aA"/><path d="M180 0v-1490h510c348 0 508 194 508 460 0 198-88 351-276 417L1256 0h-220L726-579c-117 2-238 0-356 1V0H180zm190-747h312c235 0 327-108 327-283 0-177-92-293-329-293H370v576" id="aB"/><path d="M98-1322v-168h1126v168H757V0H567v-1322H98" id="aC"/><g id="j"><use transform="matrix(0.008680555555555556,0,0,0.008680555555555556,0,0)" xlink:href="#aj"/><use transform="matrix(0.008680555555555556,0,0,0.008680555555555556,6.484375,0)" xlink:href="#az"/><use transform="matrix(0.008680555555555556,0,0,0.008680555555555556,18.116319444444443,0)" xlink:href="#aA"/><use transform="matrix(0.008680555555555556,0,0,0.008680555555555556,28.802083333333332,0)" xlink:href="#aB"/><use transform="matrix(0.008680555555555556,0,0,0.008680555555555556,40.24305555555556,0)" xlink:href="#aC"/><use transform="matrix(0.008680555555555556,0,0,0.008680555555555556,51.71875,0)" xlink:href="#an"/></g><g id="k"><use transform="matrix(0.008680555555555556,0,0,0.008680555555555556,0,0)" xlink:href="#ao"/><use transform="matrix(0.008680555555555556,0,0,0.008680555555555556,11.40625,0)" xlink:href="#al"/><use transform="matrix(0.008680555555555556,0,0,0.008680555555555556,22.46527777777778,0)" xlink:href="#X"/><use transform="matrix(0.008680555555555556,0,0,0.008680555555555556,32.44791666666667,0)" xlink:href="#ab"/></g><g id="l"><use transform="matrix(0.008680555555555556,0,0,0.008680555555555556,0,0)" xlink:href="#ad"/><use transform="matrix(0.008680555555555556,0,0,0.008680555555555556,12.829861111111112,0)" xlink:href="#Z"/><use transform="matrix(0.008680555555555556,0,0,0.008680555555555556,23.194444444444446,0)" xlink:href="#ae"/><use transform="matrix(0.008680555555555556,0,0,0.008680555555555556,28.836805555555557,0)" xlink:href="#Z"/><use transform="matrix(0.008680555555555556,0,0,0.008680555555555556,39.20138888888889,0)" xlink:href="#af"/><use transform="matrix(0.008680555555555556,0,0,0.008680555555555556,49.35763888888889,0)" xlink:href="#ae"/><use transform="matrix(0.008680555555555556,0,0,0.008680555555555556,55.173611111111114,0)" xlink:href="#ag"/><use transform="matrix(0.008680555555555556,0,0,0.008680555555555556,59.47916666666667,0)" xlink:href="#ah"/><use transform="matrix(0.008680555555555556,0,0,0.008680555555555556,70.1388888888889,0)" xlink:href="#ai"/></g><path d="M338-670V0H158v-1490h180v566c73-149 190-208 336-208 226 0 379 139 379 422V0H872v-695c0-172-96-275-252-275-161 0-282 109-282 300" id="aD"/><g id="m"><use transform="matrix(0.008680555555555556,0,0,0.008680555555555556,0,0)" xlink:href="#ao"/><use transform="matrix(0.008680555555555556,0,0,0.008680555555555556,11.40625,0)" xlink:href="#al"/><use transform="matrix(0.008680555555555556,0,0,0.008680555555555556,22.291666666666668,0)" xlink:href="#Z"/><use transform="matrix(0.008680555555555556,0,0,0.008680555555555556,32.65625,0)" xlink:href="#Z"/><use transform="matrix(0.008680555555555556,0,0,0.008680555555555556,43.020833333333336,0)" xlink:href="#af"/><use transform="matrix(0.008680555555555556,0,0,0.008680555555555556,53.177083333333336,0)" xlink:href="#aD"/></g><g id="n"><use transform="matrix(0.008680555555555556,0,0,0.008680555555555556,0,0)" xlink:href="#ae"/><use transform="matrix(0.008680555555555556,0,0,0.008680555555555556,5.642361111111112,0)" xlink:href="#ah"/></g><path d="M65 0l393-574-370-544h210c88 136 192 297 267 435 67-142 176-302 264-435h206L661-564 1053 0H844c-94-144-206-310-287-458C484-308 366-142 273 0H65" id="aE"/><g id="o"><use transform="matrix(0.008680555555555556,0,0,0.008680555555555556,0,0)" xlink:href="#aC"/><use transform="matrix(0.008680555555555556,0,0,0.008680555555555556,10.086805555555555,0)" xlink:href="#Z"/><use transform="matrix(0.008680555555555556,0,0,0.008680555555555556,20.052083333333336,0)" xlink:href="#aE"/><use transform="matrix(0.008680555555555556,0,0,0.008680555555555556,30.104166666666668,0)" xlink:href="#ae"/></g><path d="M783 20c-382 0-661-292-661-764 0-473 279-766 661-766 302 0 548 182 601 489h-190c-42-204-217-313-411-313-268 0-476 208-476 590 0 381 209 588 476 588 195 0 369-110 411-313h190c-52 303-296 489-601 489" id="aF"/><path d="M481 0L54-1118h197c107 314 236 620 325 951 87-331 217-637 324-951h197L670 0H481" id="aG"/><g id="p"><use transform="matrix(0.008680555555555556,0,0,0.008680555555555556,0,0)" xlink:href="#aF"/><use transform="matrix(0.008680555555555556,0,0,0.008680555555555556,12.986111111111112,0)" xlink:href="#ah"/><use transform="matrix(0.008680555555555556,0,0,0.008680555555555556,23.645833333333336,0)" xlink:href="#ai"/><use transform="matrix(0.008680555555555556,0,0,0.008680555555555556,33.88888888888889,0)" xlink:href="#aG"/><use transform="matrix(0.008680555555555556,0,0,0.008680555555555556,43.532986111111114,0)" xlink:href="#Z"/><use transform="matrix(0.008680555555555556,0,0,0.008680555555555556,53.89756944444445,0)" xlink:href="#aq"/><use transform="matrix(0.008680555555555556,0,0,0.008680555555555556,60.590277777777786,0)" xlink:href="#ay"/><use transform="matrix(0.008680555555555556,0,0,0.008680555555555556,69.97395833333334,0)" xlink:href="#ag"/><use transform="matrix(0.008680555555555556,0,0,0.008680555555555556,74.27951388888889,0)" xlink:href="#ah"/><use transform="matrix(0.008680555555555556,0,0,0.008680555555555556,84.93923611111113,0)" xlink:href="#ai"/></g><g id="q"><use transform="matrix(0.008680555555555556,0,0,0.008680555555555556,0,0)" xlink:href="#aA"/><use transform="matrix(0.008680555555555556,0,0,0.008680555555555556,10.68576388888889,0)" xlink:href="#ab"/><use transform="matrix(0.008680555555555556,0,0,0.008680555555555556,26.258680555555557,0)" xlink:href="#ah"/><use transform="matrix(0.008680555555555556,0,0,0.008680555555555556,36.91840277777778,0)" xlink:href="#ae"/><use transform="matrix(0.008680555555555556,0,0,0.008680555555555556,42.734375,0)" xlink:href="#ag"/><use transform="matrix(0.008680555555555556,0,0,0.008680555555555556,47.03993055555556,0)" xlink:href="#ah"/><use transform="matrix(0.008680555555555556,0,0,0.008680555555555556,57.69965277777778,0)" xlink:href="#ai"/></g><path d="M577 24c-279 0-473-224-473-580 0-354 195-576 474-576 218 0 287 134 324 193h14v-551h180V0H922v-173h-20C865-111 790 24 577 24zm27-161c203 0 314-172 314-421 0-247-108-413-314-413-212 0-317 181-317 413 0 235 108 421 317 421" id="aH"/><g id="r"><use transform="matrix(0.008680555555555556,0,0,0.008680555555555556,0,0)" xlink:href="#aH"/><use transform="matrix(0.008680555555555556,0,0,0.008680555555555556,10.885416666666668,0)" xlink:href="#Z"/><use transform="matrix(0.008680555555555556,0,0,0.008680555555555556,21.25,0)" xlink:href="#ae"/><use transform="matrix(0.008680555555555556,0,0,0.008680555555555556,26.89236111111111,0)" xlink:href="#Z"/><use transform="matrix(0.008680555555555556,0,0,0.008680555555555556,37.25694444444444,0)" xlink:href="#af"/><use transform="matrix(0.008680555555555556,0,0,0.008680555555555556,47.41319444444445,0)" xlink:href="#ae"/><use transform="matrix(0.008680555555555556,0,0,0.008680555555555556,53.229166666666664,0)" xlink:href="#ag"/><use transform="matrix(0.008680555555555556,0,0,0.008680555555555556,57.53472222222222,0)" xlink:href="#ah"/><use transform="matrix(0.008680555555555556,0,0,0.008680555555555556,68.19444444444444,0)" xlink:href="#ai"/></g><path d="M458 0L52-1490h194c108 439 233 855 324 1313 92-459 221-873 331-1313h216c110 438 234 854 330 1307 92-455 216-869 323-1307h196L1558 0h-221l-256-944c-26-95-50-200-73-331-22 122-44 223-73 331L680 0H458" id="aI"/><path d="M154 0v-137l495-537c165-179 249-281 249-418 0-156-121-253-280-253-170 0-278 110-278 278H158c0-264 200-443 465-443 266 0 455 183 455 416 0 161-73 288-336 568L416-179v12h687V0H154" id="aJ"/><g id="s"><use transform="matrix(0.008680555555555556,0,0,0.008680555555555556,0,0)" xlink:href="#aj"/><use transform="matrix(0.008680555555555556,0,0,0.008680555555555556,6.484375,0)" xlink:href="#aI"/><use transform="matrix(0.008680555555555556,0,0,0.008680555555555556,23.098958333333332,0)" xlink:href="#X"/><use transform="matrix(0.008680555555555556,0,0,0.008680555555555556,32.82118055555556,0)" xlink:href="#aG"/><use transform="matrix(0.008680555555555556,0,0,0.008680555555555556,42.8125,0)" xlink:href="#aJ"/><use transform="matrix(0.008680555555555556,0,0,0.008680555555555556,53.654513888888886,0)" xlink:href="#ap"/><use transform="matrix(0.008680555555555556,0,0,0.008680555555555556,65.01736111111111,0)" xlink:href="#Z"/><use transform="matrix(0.008680555555555556,0,0,0.008680555555555556,75.38194444444444,0)" xlink:href="#af"/></g><path d="M692-1560L212 224H46l480-1784h166" id="aK"/><use transform="matrix(0.008680555555555556,0,0,0.008680555555555556,0,0)" xlink:href="#aK" id="t"/><path d="M180 0v-1490h270l367 940c28 72 75 218 110 339 35-117 81-264 110-339l362-940h271V0h-187c2-448-5-837 7-1287-157 497-311 829-483 1287H842C666-458 514-784 354-1284c12 438 5 843 7 1284H180" id="aL"/><g id="u"><use transform="matrix(0.008680555555555556,0,0,0.008680555555555556,0,0)" xlink:href="#at"/><use transform="matrix(0.008680555555555556,0,0,0.008680555555555556,13.59375,0)" xlink:href="#al"/><use transform="matrix(0.008680555555555556,0,0,0.008680555555555556,24.479166666666668,0)" xlink:href="#Z"/><use transform="matrix(0.008680555555555556,0,0,0.008680555555555556,34.84375,0)" xlink:href="#ai"/><use transform="matrix(0.008680555555555556,0,0,0.008680555555555556,45.34722222222222,0)" xlink:href="#ao"/><use transform="matrix(0.008680555555555556,0,0,0.008680555555555556,56.75347222222222,0)" xlink:href="#aL"/><use transform="matrix(0.008680555555555556,0,0,0.008680555555555556,72.8125,0)" xlink:href="#aa"/><use transform="matrix(0.008680555555555556,0,0,0.008680555555555556,77.58680555555556,0)" xlink:href="#au"/><use transform="matrix(0.008680555555555556,0,0,0.008680555555555556,87.63888888888889,0)" xlink:href="#aA"/><use transform="matrix(0.008680555555555556,0,0,0.008680555555555556,98.32465277777777,0)" xlink:href="#an"/></g><path d="M440-1490V0H135v-1490h305" id="aM"/><path d="M128 0v-1118h278l12 217c60-163 185-234 319-234 143 0 236 81 288 251 63-172 205-251 359-251 205 0 357 138 357 381V0h-301v-697c0-126-76-187-177-187-114 0-184 79-184 196V0H789v-705c0-109-72-179-174-179-106 0-187 74-187 208V0H128" id="aN"/><path d="M440 22C227 22 68-92 68-313c0-250 202-322 422-343 195-21 271-24 271-105 0-95-63-149-175-149-116 0-187 57-211 129l-275-46c57-194 237-305 487-305 240 0 474 108 474 379V0H777v-155h-10C713-51 605 22 440 22zm85-211c140 0 238-93 238-211v-121c-37 26-156 42-222 51-111 16-185 59-185 149 0 87 70 132 169 132" id="aO"/><path d="M625 442c-280 0-454-114-503-274l258-72c28 63 97 128 243 128 153 0 246-69 246-216v-206h-23C805-108 717-16 536-16 284-16 81-191 81-561c0-378 208-571 456-571 188 0 280 113 321 202h13v-188h295V-9c0 303-226 451-541 451zm5-686c153 0 240-119 240-319 0-198-86-329-240-329-158 0-241 137-241 329 0 195 85 319 241 319" id="aP"/><path d="M633 22C291 22 81-200 81-553c0-345 210-579 537-579 292 0 525 185 525 567v84H378c7 183 109 277 260 277 105 0 184-46 216-132l272 51C1071-99 893 22 633 22zM380-669h474c-15-146-94-237-233-237-143 0-229 99-241 237" id="aQ"/><g id="v"><use transform="matrix(0.008680555555555556,0,0,0.008680555555555556,0,0)" xlink:href="#aM"/><use transform="matrix(0.008680555555555556,0,0,0.008680555555555556,4.991319444444445,0)" xlink:href="#aN"/><use transform="matrix(0.008680555555555556,0,0,0.008680555555555556,21.21527777777778,0)" xlink:href="#aO"/><use transform="matrix(0.008680555555555556,0,0,0.008680555555555556,31.536458333333336,0)" xlink:href="#aP"/><use transform="matrix(0.008680555555555556,0,0,0.008680555555555556,42.76909722222223,0)" xlink:href="#aQ"/></g><path d="M135 0v-1490h581c339 0 533 210 533 503 0 295-197 500-540 500H440V0H135zm305-733h220c186 0 274-104 274-254s-88-251-275-251H440v505" id="aR"/><path d="M128 0v-1118h290v195h12c54-169 184-238 367-200v268c-27-8-86-15-130-15-138 0-239 95-239 234V0H128" id="aS"/><path d="M628 22C291 22 81-210 81-554c0-346 210-578 547-578 336 0 547 232 547 578 0 344-211 576-547 576zm0-236c160 0 242-146 242-341 0-197-82-341-242-341S387-753 387-555c0 195 81 341 241 341" id="aT"/><path d="M628 22C291 22 81-210 81-554c0-346 210-578 547-578 265 0 455 142 497 372l-279 52c-25-116-99-188-215-188-160 0-244 139-244 341 0 200 84 341 244 341 116 0 193-74 217-195l279 51C1085-123 896 22 628 22" id="aU"/><path d="M572 22C302 22 117-98 78-306l279-48c29 105 101 156 224 156 114 0 185-48 185-115 0-118-228-130-337-155-215-49-322-150-322-317 0-215 187-347 470-347 265 0 424 116 466 298l-266 47c-24-76-87-130-196-130-98 0-174 46-174 113 0 56 38 95 144 117l201 40c216 44 320 143 320 302 0 220-207 367-500 367" id="aV"/><path d="M128 0v-1118h300V0H128zm150-1264c-91 0-165-68-165-154 0-85 74-154 165-154 90 0 165 69 165 154 0 86-75 154-165 154" id="aW"/><path d="M428-647V0H128v-1118h283l4 231c63-156 176-245 348-245 232 0 384 159 384 421V0H847v-659c0-139-76-222-202-222-128 0-217 86-217 234" id="aX"/><g id="w"><use transform="matrix(0.008680555555555556,0,0,0.008680555555555556,0,0)" xlink:href="#aR"/><use transform="matrix(0.008680555555555556,0,0,0.008680555555555556,11.519097222222223,0)" xlink:href="#aS"/><use transform="matrix(0.008680555555555556,0,0,0.008680555555555556,18.32465277777778,0)" xlink:href="#aT"/><use transform="matrix(0.008680555555555556,0,0,0.008680555555555556,29.227430555555557,0)" xlink:href="#aU"/><use transform="matrix(0.008680555555555556,0,0,0.008680555555555556,39.6875,0)" xlink:href="#aQ"/><use transform="matrix(0.008680555555555556,0,0,0.008680555555555556,50.27777777777778,0)" xlink:href="#aV"/><use transform="matrix(0.008680555555555556,0,0,0.008680555555555556,60.234375,0)" xlink:href="#aV"/><use transform="matrix(0.008680555555555556,0,0,0.008680555555555556,70.19097222222223,0)" xlink:href="#aW"/><use transform="matrix(0.008680555555555556,0,0,0.008680555555555556,75.00868055555556,0)" xlink:href="#aX"/><use transform="matrix(0.008680555555555556,0,0,0.008680555555555556,86.07638888888889,0)" xlink:href="#aP"/></g><path d="M75-1237v-253h1217v253H837V0H531v-1237H75" id="aY"/><path d="M42 0l360-574-338-544h324c72 124 151 261 209 394 58-134 140-271 215-394h318L785-570 1146 0H824c-79-136-169-280-234-425C528-278 439-134 360 0H42" id="aZ"/><path d="M683-1118v229H474v562c0 71 29 104 102 104 23 0 73-7 95-13l43 225C647 9 580 16 520 16 296 16 174-96 174-301v-588H20v-229h154v-266h300v266h209" id="ba"/><g id="x"><use transform="matrix(0.008680555555555556,0,0,0.008680555555555556,0,0)" xlink:href="#aY"/><use transform="matrix(0.008680555555555556,0,0,0.008680555555555556,10.477430555555555,0)" xlink:href="#aQ"/><use transform="matrix(0.008680555555555556,0,0,0.008680555555555556,20.711805555555557,0)" xlink:href="#aZ"/><use transform="matrix(0.008680555555555556,0,0,0.008680555555555556,31.276041666666668,0)" xlink:href="#ba"/></g><path d="M49 0l509-1490h400L1480 0h-339l-115-346H497L386 0H49zm524-585h374c-75-213-124-402-192-666-66 268-110 453-182 666" id="bb"/><path d="M513 14c-232 0-385-159-385-421v-711h300v659c0 139 76 222 202 222 127 0 217-86 217-234v-647h301V0H864l-4-232C797-74 683 14 513 14" id="bc"/><path d="M537 19C279 19 81-185 81-557c0-382 206-575 454-575 190 0 278 113 318 202h10v-560h300V0H868v-179h-15C812-89 719 19 537 19zm92-241c153 0 240-134 240-336 0-203-86-334-240-334-158 0-240 138-240 334 0 197 84 336 240 336" id="bd"/><g id="y"><use transform="matrix(0.008680555555555556,0,0,0.008680555555555556,0,0)" xlink:href="#bb"/><use transform="matrix(0.008680555555555556,0,0,0.008680555555555556,13.272569444444445,0)" xlink:href="#bc"/><use transform="matrix(0.008680555555555556,0,0,0.008680555555555556,24.34027777777778,0)" xlink:href="#bd"/><use transform="matrix(0.008680555555555556,0,0,0.008680555555555556,35.546875,0)" xlink:href="#aW"/><use transform="matrix(0.008680555555555556,0,0,0.008680555555555556,40.364583333333336,0)" xlink:href="#aT"/></g><g id="z"><use transform="matrix(0.010850694444444444,0,0,0.010850694444444444,0,0)" xlink:href="#bb"/><use transform="matrix(0.010850694444444444,0,0,0.010850694444444444,16.590711805555554,0)" xlink:href="#aM"/></g><path d="M571 0L49-1490h339c138 427 271 775 384 1244 111-471 237-815 371-1244h337L970 0H571" id="be"/><path d="M750-1118v229H516V0H217v-889H20v-229h197v-86c0-238 156-356 363-356 94 0 178 20 215 31l-54 226c-25-7-61-15-100-15-123-3-131 84-125 200h234" id="bf"/><g id="A"><use transform="matrix(0.010850694444444444,0,0,0.010850694444444444,0,0)" xlink:href="#be"/><use transform="matrix(0.010850694444444444,0,0,0.010850694444444444,15.234374999999996,0)" xlink:href="#aQ"/><use transform="matrix(0.010850694444444444,0,0,0.010850694444444444,28.47222222222222,0)" xlink:href="#aS"/><use transform="matrix(0.010850694444444444,0,0,0.010850694444444444,37.68446180555556,0)" xlink:href="#aW"/><use transform="matrix(0.010850694444444444,0,0,0.010850694444444444,43.70659722222222,0)" xlink:href="#bf"/><use transform="matrix(0.010850694444444444,0,0,0.010850694444444444,52.734375,0)" xlink:href="#aW"/><use transform="matrix(0.010850694444444444,0,0,0.010850694444444444,58.756510416666664,0)" xlink:href="#aU"/><use transform="matrix(0.010850694444444444,0,0,0.010850694444444444,72.0486111111111,0)" xlink:href="#aO"/><use transform="matrix(0.010850694444444444,0,0,0.010850694444444444,84.95008680555554,0)" xlink:href="#ba"/><use transform="matrix(0.010850694444444444,0,0,0.010850694444444444,93.08810763888887,0)" xlink:href="#aW"/><use transform="matrix(0.010850694444444444,0,0,0.010850694444444444,99.11024305555556,0)" xlink:href="#aT"/><use transform="matrix(0.010850694444444444,0,0,0.010850694444444444,112.73871527777777,0)" xlink:href="#aX"/></g><path d="M763 24c-353 0-583-224-583-531v-983h190v968c0 214 149 370 393 370 243 0 391-156 391-370v-968h190v983c0 307-230 531-581 531" id="bg"/><g id="B"><use transform="matrix(0.010850694444444444,0,0,0.010850694444444444,0,0)" xlink:href="#bg"/><use transform="matrix(0.010850694444444444,0,0,0.010850694444444444,16.536458333333332,0)" xlink:href="#ay"/><use transform="matrix(0.010850694444444444,0,0,0.010850694444444444,28.266059027777775,0)" xlink:href="#Z"/><use transform="matrix(0.010850694444444444,0,0,0.010850694444444444,41.22178819444444,0)" xlink:href="#aq"/></g><g id="C"><use transform="matrix(0.007595486111111112,0,0,0.007595486111111112,0,0)" xlink:href="#ao"/><use transform="matrix(0.007595486111111112,0,0,0.007595486111111112,9.980468750000002,0)" xlink:href="#Z"/><use transform="matrix(0.007595486111111112,0,0,0.007595486111111112,19.04947916666667,0)" xlink:href="#ai"/><use transform="matrix(0.007595486111111112,0,0,0.007595486111111112,28.240017361111114,0)" xlink:href="#aH"/><use transform="matrix(0.007595486111111112,0,0,0.007595486111111112,37.76475694444445,0)" xlink:href="#ay"/></g><g id="D"><use transform="matrix(0.007595486111111112,0,0,0.007595486111111112,0,0)" xlink:href="#aA"/><use transform="matrix(0.007595486111111112,0,0,0.007595486111111112,9.350043402777779,0)" xlink:href="#ab"/><use transform="matrix(0.007595486111111112,0,0,0.007595486111111112,22.976345486111114,0)" xlink:href="#Z"/><use transform="matrix(0.007595486111111112,0,0,0.007595486111111112,32.045355902777786,0)" xlink:href="#aq"/><use transform="matrix(0.007595486111111112,0,0,0.007595486111111112,37.64322916666667,0)" xlink:href="#ac"/><use transform="matrix(0.007595486111111112,0,0,0.007595486111111112,47.18315972222223,0)" xlink:href="#Z"/><use transform="matrix(0.007595486111111112,0,0,0.007595486111111112,56.2521701388889,0)" xlink:href="#ai"/><use transform="matrix(0.007595486111111112,0,0,0.007595486111111112,65.44270833333334,0)" xlink:href="#af"/><use transform="matrix(0.007595486111111112,0,0,0.007595486111111112,74.0256076388889,0)" xlink:href="#ax"/></g><g id="E"><use transform="matrix(0.007595486111111112,0,0,0.007595486111111112,0,0)" xlink:href="#av"/><use transform="matrix(0.007595486111111112,0,0,0.007595486111111112,10.732421875000002,0)" xlink:href="#aw"/><use transform="matrix(0.007595486111111112,0,0,0.007595486111111112,14.499782986111114,0)" xlink:href="#Z"/><use transform="matrix(0.007595486111111112,0,0,0.007595486111111112,23.568793402777782,0)" xlink:href="#aq"/><use transform="matrix(0.007595486111111112,0,0,0.007595486111111112,29.667968750000007,0)" xlink:href="#ae"/><use transform="matrix(0.007595486111111112,0,0,0.007595486111111112,34.60503472222223,0)" xlink:href="#ay"/></g><g id="F"><use transform="matrix(0.008680555555555556,0,0,0.008680555555555556,0,0)" xlink:href="#au"/><use transform="matrix(0.008680555555555556,0,0,0.008680555555555556,10.052083333333334,0)" xlink:href="#ah"/><use transform="matrix(0.008680555555555556,0,0,0.008680555555555556,20.711805555555557,0)" xlink:href="#aB"/><use transform="matrix(0.008680555555555556,0,0,0.008680555555555556,32.06597222222222,0)" xlink:href="#X"/><use transform="matrix(0.008680555555555556,0,0,0.008680555555555556,41.14583333333333,0)" xlink:href="#aI"/><use transform="matrix(0.008680555555555556,0,0,0.008680555555555556,57.65625,0)" xlink:href="#av"/><use transform="matrix(0.008680555555555556,0,0,0.008680555555555556,69.921875,0)" xlink:href="#am"/></g><path d="M789 20c-398 0-667-293-667-764 0-473 273-766 655-766 315 0 558 198 612 487h-196c-61-191-204-311-415-311-262 0-471 207-471 590 0 380 208 588 482 588 249 0 420-165 425-427H828v-166h572v163c0 370-256 606-611 606" id="bh"/><path d="M409 0L70-1118h191c89 329 165 560 243 925 75-353 154-601 240-925h192c85 325 161 564 235 922 77-354 157-598 244-922h191L1267 0h-179c-86-307-176-590-250-913C763-588 675-308 588 0H409" id="bi"/><g id="G"><use transform="matrix(0.008680555555555556,0,0,0.008680555555555556,0,0)" xlink:href="#bh"/><use transform="matrix(0.008680555555555556,0,0,0.008680555555555556,13.26388888888889,0)" xlink:href="#X"/><use transform="matrix(0.008680555555555556,0,0,0.008680555555555556,23.24652777777778,0)" xlink:href="#ae"/><use transform="matrix(0.008680555555555556,0,0,0.008680555555555556,28.88888888888889,0)" xlink:href="#Z"/><use transform="matrix(0.008680555555555556,0,0,0.008680555555555556,38.93229166666666,0)" xlink:href="#bi"/><use transform="matrix(0.008680555555555556,0,0,0.008680555555555556,53.48090277777778,0)" xlink:href="#X"/><use transform="matrix(0.008680555555555556,0,0,0.008680555555555556,63.203125,0)" xlink:href="#ax"/></g><g id="H"><use transform="matrix(0.008680555555555556,0,0,0.008680555555555556,0,0)" xlink:href="#au"/><use transform="matrix(0.008680555555555556,0,0,0.008680555555555556,10.052083333333334,0)" xlink:href="#ah"/><use transform="matrix(0.008680555555555556,0,0,0.008680555555555556,20.711805555555557,0)" xlink:href="#af"/><use transform="matrix(0.008680555555555556,0,0,0.008680555555555556,31.041666666666668,0)" xlink:href="#X"/><use transform="matrix(0.008680555555555556,0,0,0.008680555555555556,41.02430555555556,0)" xlink:href="#aw"/></g><g id="I"><use transform="matrix(0.008680555555555556,0,0,0.008680555555555556,0,0)" xlink:href="#ao"/><use transform="matrix(0.008680555555555556,0,0,0.008680555555555556,11.40625,0)" xlink:href="#Z"/><use transform="matrix(0.008680555555555556,0,0,0.008680555555555556,21.770833333333336,0)" xlink:href="#aq"/><use transform="matrix(0.008680555555555556,0,0,0.008680555555555556,28.74131944444445,0)" xlink:href="#aG"/><use transform="matrix(0.008680555555555556,0,0,0.008680555555555556,38.38541666666667,0)" xlink:href="#Z"/><use transform="matrix(0.008680555555555556,0,0,0.008680555555555556,48.75000000000001,0)" xlink:href="#aq"/></g><g id="J"><use transform="matrix(0.007595486111111112,0,0,0.007595486111111112,0,0)" xlink:href="#W"/><use transform="matrix(0.007595486111111112,0,0,0.007595486111111112,8.567708333333334,0)" xlink:href="#ah"/><use transform="matrix(0.007595486111111112,0,0,0.007595486111111112,17.89496527777778,0)" xlink:href="#aq"/><use transform="matrix(0.007595486111111112,0,0,0.007595486111111112,23.880208333333336,0)" xlink:href="#bi"/><use transform="matrix(0.007595486111111112,0,0,0.007595486111111112,36.61024305555556,0)" xlink:href="#X"/><use transform="matrix(0.007595486111111112,0,0,0.007595486111111112,45.345052083333336,0)" xlink:href="#aq"/><use transform="matrix(0.007595486111111112,0,0,0.007595486111111112,50.94292534722222,0)" xlink:href="#aH"/><use transform="matrix(0.007595486111111112,0,0,0.007595486111111112,60.46766493055556,0)" xlink:href="#ay"/></g><g id="K"><use transform="matrix(0.007595486111111112,0,0,0.007595486111111112,0,0)" xlink:href="#av"/><use transform="matrix(0.007595486111111112,0,0,0.007595486111111112,10.732421875000002,0)" xlink:href="#aw"/><use transform="matrix(0.007595486111111112,0,0,0.007595486111111112,14.499782986111114,0)" xlink:href="#Z"/><use transform="matrix(0.007595486111111112,0,0,0.007595486111111112,23.568793402777782,0)" xlink:href="#aq"/><use transform="matrix(0.007595486111111112,0,0,0.007595486111111112,29.667968750000007,0)" xlink:href="#ae"/></g><g id="L"><use transform="matrix(0.007595486111111112,0,0,0.007595486111111112,0,0)" xlink:href="#ad"/><use transform="matrix(0.007595486111111112,0,0,0.007595486111111112,11.226128472222223,0)" xlink:href="#X"/><use transform="matrix(0.007595486111111112,0,0,0.007595486111111112,19.9609375,0)" xlink:href="#ae"/><use transform="matrix(0.007595486111111112,0,0,0.007595486111111112,25.125868055555557,0)" xlink:href="#X"/></g><path d="M537 14c-226 0-379-139-379-422v-710h180v695c0 172 97 275 253 275 160 0 281-109 281-300v-670h181V0H879v-209C806-46 684 14 537 14" id="bj"/><g id="M"><use transform="matrix(0.007595486111111112,0,0,0.007595486111111112,0,0)" xlink:href="#aB"/><use transform="matrix(0.007595486111111112,0,0,0.007595486111111112,9.78298611111111,0)" xlink:href="#Z"/><use transform="matrix(0.007595486111111112,0,0,0.007595486111111112,18.85199652777778,0)" xlink:href="#ae"/><use transform="matrix(0.007595486111111112,0,0,0.007595486111111112,23.94097222222222,0)" xlink:href="#bj"/><use transform="matrix(0.007595486111111112,0,0,0.007595486111111112,33.13910590277778,0)" xlink:href="#aq"/><use transform="matrix(0.007595486111111112,0,0,0.007595486111111112,39.23828125,0)" xlink:href="#ai"/><use transform="matrix(0.007595486111111112,0,0,0.007595486111111112,48.42881944444444,0)" xlink:href="#ay"/></g><g id="N"><use transform="matrix(0.007595486111111112,0,0,0.007595486111111112,0,0)" xlink:href="#ap"/><use transform="matrix(0.007595486111111112,0,0,0.007595486111111112,9.942491319444446,0)" xlink:href="#Z"/><use transform="matrix(0.007595486111111112,0,0,0.007595486111111112,19.011501736111114,0)" xlink:href="#aq"/><use transform="matrix(0.007595486111111112,0,0,0.007595486111111112,25.11067708333334,0)" xlink:href="#ag"/><use transform="matrix(0.007595486111111112,0,0,0.007595486111111112,28.87803819444445,0)" xlink:href="#ar"/><use transform="matrix(0.007595486111111112,0,0,0.007595486111111112,34.63541666666667,0)" xlink:href="#ag"/><use transform="matrix(0.007595486111111112,0,0,0.007595486111111112,38.402777777777786,0)" xlink:href="#af"/><use transform="matrix(0.007595486111111112,0,0,0.007595486111111112,47.44140625000001,0)" xlink:href="#X"/><use transform="matrix(0.007595486111111112,0,0,0.007595486111111112,56.176215277777786,0)" xlink:href="#ae"/><use transform="matrix(0.007595486111111112,0,0,0.007595486111111112,61.26519097222223,0)" xlink:href="#ag"/><use transform="matrix(0.007595486111111112,0,0,0.007595486111111112,65.03255208333334,0)" xlink:href="#ah"/><use transform="matrix(0.007595486111111112,0,0,0.007595486111111112,74.35980902777779,0)" xlink:href="#ai"/></g><g id="O"><use transform="matrix(0.007595486111111112,0,0,0.007595486111111112,0,0)" xlink:href="#aB"/><use transform="matrix(0.007595486111111112,0,0,0.007595486111111112,9.78298611111111,0)" xlink:href="#Z"/><use transform="matrix(0.007595486111111112,0,0,0.007595486111111112,18.85199652777778,0)" xlink:href="#ay"/><use transform="matrix(0.007595486111111112,0,0,0.007595486111111112,27.062717013888893,0)" xlink:href="#bj"/><use transform="matrix(0.007595486111111112,0,0,0.007595486111111112,36.26085069444445,0)" xlink:href="#aw"/><use transform="matrix(0.007595486111111112,0,0,0.007595486111111112,40.2560763888889,0)" xlink:href="#ae"/></g><g id="P"><use transform="matrix(0.007595486111111112,0,0,0.007595486111111112,0,0)" xlink:href="#ap"/><use transform="matrix(0.007595486111111112,0,0,0.007595486111111112,9.942491319444446,0)" xlink:href="#Z"/><use transform="matrix(0.007595486111111112,0,0,0.007595486111111112,19.011501736111114,0)" xlink:href="#aq"/><use transform="matrix(0.007595486111111112,0,0,0.007595486111111112,25.11067708333334,0)" xlink:href="#ag"/><use transform="matrix(0.007595486111111112,0,0,0.007595486111111112,28.87803819444445,0)" xlink:href="#ar"/><use transform="matrix(0.007595486111111112,0,0,0.007595486111111112,34.63541666666667,0)" xlink:href="#ag"/><use transform="matrix(0.007595486111111112,0,0,0.007595486111111112,38.402777777777786,0)" xlink:href="#Z"/><use transform="matrix(0.007595486111111112,0,0,0.007595486111111112,47.47178819444446,0)" xlink:href="#ay"/></g><g id="Q"><use transform="matrix(0.007595486111111112,0,0,0.007595486111111112,0,0)" xlink:href="#av"/><use transform="matrix(0.007595486111111112,0,0,0.007595486111111112,10.732421875000002,0)" xlink:href="#aw"/><use transform="matrix(0.007595486111111112,0,0,0.007595486111111112,14.499782986111114,0)" xlink:href="#Z"/><use transform="matrix(0.007595486111111112,0,0,0.007595486111111112,23.568793402777782,0)" xlink:href="#aq"/><use transform="matrix(0.007595486111111112,0,0,0.007595486111111112,29.667968750000007,0)" xlink:href="#ae"/></g><path d="M677 24c-213 0-288-135-325-197h-20V0H158v-1490h180v551h14c37-59 106-193 324-193 279 0 474 222 474 576 0 356-194 580-473 580zm-27-161c209 0 317-186 317-421 0-232-105-413-317-413-206 0-314 166-314 413 0 249 111 421 314 421" id="bk"/><g id="R"><use transform="matrix(0.008680555555555556,0,0,0.008680555555555556,0,0)" xlink:href="#ad"/><use transform="matrix(0.008680555555555556,0,0,0.008680555555555556,12.829861111111112,0)" xlink:href="#X"/><use transform="matrix(0.008680555555555556,0,0,0.008680555555555556,22.8125,0)" xlink:href="#ay"/><use transform="matrix(0.008680555555555556,0,0,0.008680555555555556,32.19618055555556,0)" xlink:href="#aD"/><use transform="matrix(0.008680555555555556,0,0,0.008680555555555556,42.708333333333336,0)" xlink:href="#bk"/><use transform="matrix(0.008680555555555556,0,0,0.008680555555555556,53.59375,0)" xlink:href="#ah"/><use transform="matrix(0.008680555555555556,0,0,0.008680555555555556,64.42708333333334,0)" xlink:href="#X"/><use transform="matrix(0.008680555555555556,0,0,0.008680555555555556,74.40972222222223,0)" xlink:href="#aq"/><use transform="matrix(0.008680555555555556,0,0,0.008680555555555556,80.80729166666667,0)" xlink:href="#aH"/></g><g id="S"><use transform="matrix(0.007595486111111112,0,0,0.007595486111111112,0,0)" xlink:href="#ao"/><use transform="matrix(0.007595486111111112,0,0,0.007595486111111112,9.980468750000002,0)" xlink:href="#Z"/><use transform="matrix(0.007595486111111112,0,0,0.007595486111111112,19.04947916666667,0)" xlink:href="#ai"/><use transform="matrix(0.007595486111111112,0,0,0.007595486111111112,28.240017361111114,0)" xlink:href="#aH"/><use transform="matrix(0.007595486111111112,0,0,0.007595486111111112,37.76475694444445,0)" xlink:href="#ay"/></g><g id="T"><use transform="matrix(0.007595486111111112,0,0,0.007595486111111112,0,0)" xlink:href="#X"/><use transform="matrix(0.007595486111111112,0,0,0.007595486111111112,8.734809027777779,0)" xlink:href="#ai"/><use transform="matrix(0.007595486111111112,0,0,0.007595486111111112,17.92534722222222,0)" xlink:href="#aH"/></g><g id="U"><use transform="matrix(0.007595486111111112,0,0,0.007595486111111112,0,0)" xlink:href="#aH"/><use transform="matrix(0.007595486111111112,0,0,0.007595486111111112,9.524739583333334,0)" xlink:href="#ag"/><use transform="matrix(0.007595486111111112,0,0,0.007595486111111112,13.292100694444446,0)" xlink:href="#ay"/><use transform="matrix(0.007595486111111112,0,0,0.007595486111111112,21.502821180555557,0)" xlink:href="#al"/><use transform="matrix(0.007595486111111112,0,0,0.007595486111111112,31.027560763888893,0)" xlink:href="#aw"/><use transform="matrix(0.007595486111111112,0,0,0.007595486111111112,34.79492187500001,0)" xlink:href="#X"/><use transform="matrix(0.007595486111111112,0,0,0.007595486111111112,43.30186631944445,0)" xlink:href="#ax"/><use transform="matrix(0.007595486111111112,0,0,0.007595486111111112,52.04427083333334,0)" xlink:href="#ay"/></g><g id="V"><use transform="matrix(0.007595486111111112,0,0,0.007595486111111112,0,0)" xlink:href="#ap"/><use transform="matrix(0.007595486111111112,0,0,0.007595486111111112,9.942491319444446,0)" xlink:href="#Z"/><use transform="matrix(0.007595486111111112,0,0,0.007595486111111112,19.011501736111114,0)" xlink:href="#aq"/><use transform="matrix(0.007595486111111112,0,0,0.007595486111111112,25.11067708333334,0)" xlink:href="#ag"/><use transform="matrix(0.007595486111111112,0,0,0.007595486111111112,28.87803819444445,0)" xlink:href="#ar"/><use transform="matrix(0.007595486111111112,0,0,0.007595486111111112,34.63541666666667,0)" xlink:href="#ag"/><use transform="matrix(0.007595486111111112,0,0,0.007595486111111112,38.402777777777786,0)" xlink:href="#Z"/><use transform="matrix(0.007595486111111112,0,0,0.007595486111111112,47.47178819444446,0)" xlink:href="#aH"/></g></defs></g></svg>